<mxfile host="Electron" modified="2024-05-31T07:55:41.857Z" agent="Mozilla/5.0 (Windows NT 10.0; Win64; x64) AppleWebKit/537.36 (KHTML, like Gecko) draw.io/23.0.2 Chrome/120.0.6099.109 Electron/28.1.0 Safari/537.36" etag="NQL3tvnEvKRDaEK-c2PU" version="23.0.2" type="device" pages="6">
  <diagram name="Dasbor siswa" id="qEo5RQHNCJHZpH2gJ81h">
    <mxGraphModel dx="1034" dy="511" grid="1" gridSize="10" guides="1" tooltips="1" connect="1" arrows="1" fold="1" page="1" pageScale="1" pageWidth="850" pageHeight="1100" math="0" shadow="0">
      <root>
        <mxCell id="0" />
        <mxCell id="1" parent="0" />
        <mxCell id="NA2zdX5ggJzwxjYgc-BW-2" value="" style="rounded=0;whiteSpace=wrap;html=1;movable=1;resizable=1;rotatable=1;deletable=1;editable=1;locked=0;connectable=1;" parent="1" vertex="1">
          <mxGeometry x="200" y="40" width="440" height="240" as="geometry" />
        </mxCell>
        <mxCell id="NA2zdX5ggJzwxjYgc-BW-3" value="&lt;font style=&quot;font-size: 6px;&quot;&gt;logo&lt;/font&gt;" style="whiteSpace=wrap;html=1;aspect=fixed;" parent="1" vertex="1">
          <mxGeometry x="205" y="60" width="20" height="20" as="geometry" />
        </mxCell>
        <mxCell id="NA2zdX5ggJzwxjYgc-BW-4" value="" style="endArrow=none;html=1;rounded=0;" parent="1" edge="1">
          <mxGeometry width="50" height="50" relative="1" as="geometry">
            <mxPoint x="280" y="280" as="sourcePoint" />
            <mxPoint x="280" y="40" as="targetPoint" />
          </mxGeometry>
        </mxCell>
        <mxCell id="NA2zdX5ggJzwxjYgc-BW-5" value="" style="line;strokeWidth=2;html=1;" parent="1" vertex="1">
          <mxGeometry x="286" y="42" width="8" height="5" as="geometry" />
        </mxCell>
        <mxCell id="NA2zdX5ggJzwxjYgc-BW-6" value="" style="line;strokeWidth=2;html=1;" parent="1" vertex="1">
          <mxGeometry x="286" y="48" width="8" height="5" as="geometry" />
        </mxCell>
        <mxCell id="NA2zdX5ggJzwxjYgc-BW-7" value="" style="line;strokeWidth=2;html=1;" parent="1" vertex="1">
          <mxGeometry x="286" y="45" width="8" height="5" as="geometry" />
        </mxCell>
        <mxCell id="NA2zdX5ggJzwxjYgc-BW-8" value="&lt;font style=&quot;font-size: 6px;&quot;&gt;&lt;b&gt;MENU SISWA&lt;/b&gt;&lt;/font&gt;" style="text;html=1;strokeColor=none;fillColor=none;align=center;verticalAlign=middle;whiteSpace=wrap;rounded=0;" parent="1" vertex="1">
          <mxGeometry x="187" y="85" width="77" height="10" as="geometry" />
        </mxCell>
        <mxCell id="NA2zdX5ggJzwxjYgc-BW-9" value="&lt;font style=&quot;font-size: 6px;&quot;&gt;Dashboard&lt;br&gt;Materi dan Tugas&lt;br&gt;Forum Diskusi&lt;br&gt;Laporan Nilai Siswa&lt;br&gt;&lt;/font&gt;" style="text;html=1;strokeColor=none;fillColor=none;align=left;verticalAlign=middle;whiteSpace=wrap;rounded=0;" parent="1" vertex="1">
          <mxGeometry x="205" y="110" width="154" height="30" as="geometry" />
        </mxCell>
        <mxCell id="NA2zdX5ggJzwxjYgc-BW-10" value="&lt;font style=&quot;font-size: 8px;&quot;&gt;&lt;b&gt;Dashboard&lt;/b&gt;&lt;/font&gt;" style="text;html=1;strokeColor=none;fillColor=none;align=center;verticalAlign=middle;whiteSpace=wrap;rounded=0;movable=1;resizable=1;rotatable=1;deletable=1;editable=1;locked=0;connectable=1;" parent="1" vertex="1">
          <mxGeometry x="290" y="54" width="38" height="10" as="geometry" />
        </mxCell>
        <mxCell id="NA2zdX5ggJzwxjYgc-BW-11" value="&lt;div style=&quot;text-align: justify;&quot;&gt;&lt;span style=&quot;font-size: 6px; background-color: initial;&quot;&gt;Selamat datang di Aplikasi SIAKAD Sekolahan. Aplikasi ini dirancang untuk memudahkan dalam manajerial sekolah dan penunjang kegiatan PJJ (Pembelajaran Jarak Jauh). Jika kesulitan dalam menggunakan aplikasi ini hubungi operator sekolah. Terima kasih.&lt;/span&gt;&lt;/div&gt;" style="text;html=1;strokeColor=none;fillColor=none;align=left;verticalAlign=middle;whiteSpace=wrap;rounded=0;movable=1;resizable=1;rotatable=1;deletable=1;editable=1;locked=0;connectable=1;" parent="1" vertex="1">
          <mxGeometry x="287" y="82" width="349" height="28" as="geometry" />
        </mxCell>
        <mxCell id="NA2zdX5ggJzwxjYgc-BW-12" value="&lt;font style=&quot;font-size: 6px;&quot;&gt;Guru&lt;/font&gt;" style="text;html=1;strokeColor=none;fillColor=none;align=center;verticalAlign=middle;whiteSpace=wrap;rounded=0;" parent="1" vertex="1">
          <mxGeometry x="585" y="33" width="60" height="30" as="geometry" />
        </mxCell>
        <mxCell id="NA2zdX5ggJzwxjYgc-BW-13" value="&lt;font style=&quot;font-size: 8px;&quot;&gt;&lt;b&gt;SMKN1 Rawajitu&lt;/b&gt;&lt;/font&gt;" style="text;html=1;strokeColor=none;fillColor=none;align=center;verticalAlign=middle;whiteSpace=wrap;rounded=0;movable=1;resizable=1;rotatable=1;deletable=1;editable=1;locked=0;connectable=1;" parent="1" vertex="1">
          <mxGeometry x="205" y="45" width="70" height="10" as="geometry" />
        </mxCell>
        <mxCell id="NA2zdX5ggJzwxjYgc-BW-14" value="&lt;span style=&quot;font-size: 6px;&quot;&gt;Siswa Kelas..&lt;br&gt;Online&lt;br&gt;&lt;/span&gt;" style="text;html=1;strokeColor=none;fillColor=none;align=left;verticalAlign=middle;whiteSpace=wrap;rounded=0;movable=1;resizable=1;rotatable=1;deletable=1;editable=1;locked=0;connectable=1;" parent="1" vertex="1">
          <mxGeometry x="226.5" y="55" width="43.5" height="25" as="geometry" />
        </mxCell>
        <mxCell id="NA2zdX5ggJzwxjYgc-BW-15" value="&lt;font style=&quot;font-size: 6px;&quot;&gt;logo&lt;/font&gt;" style="whiteSpace=wrap;html=1;aspect=fixed;" parent="1" vertex="1">
          <mxGeometry x="585.5" y="43" width="20" height="20" as="geometry" />
        </mxCell>
        <mxCell id="NA2zdX5ggJzwxjYgc-BW-16" value="&lt;span style=&quot;font-size: 8px;&quot;&gt;&lt;b&gt;Halo Siswa!&lt;/b&gt;&lt;/span&gt;" style="text;html=1;strokeColor=none;fillColor=none;align=center;verticalAlign=middle;whiteSpace=wrap;rounded=0;movable=1;resizable=1;rotatable=1;deletable=1;editable=1;locked=0;connectable=1;" parent="1" vertex="1">
          <mxGeometry x="286" y="66" width="50" height="10" as="geometry" />
        </mxCell>
        <mxCell id="NA2zdX5ggJzwxjYgc-BW-17" value="&lt;div style=&quot;text-align: justify;&quot;&gt;&lt;span style=&quot;background-color: initial;&quot;&gt;&lt;font style=&quot;font-size: 8px;&quot;&gt;Jadwal Pelajaran Pada Tahun 2024&lt;/font&gt;&lt;/span&gt;&lt;/div&gt;" style="text;html=1;strokeColor=none;fillColor=none;align=left;verticalAlign=middle;whiteSpace=wrap;rounded=0;movable=1;resizable=1;rotatable=1;deletable=1;editable=1;locked=0;connectable=1;" parent="1" vertex="1">
          <mxGeometry x="287" y="120" width="133" height="28" as="geometry" />
        </mxCell>
        <mxCell id="NA2zdX5ggJzwxjYgc-BW-18" value="" style="rounded=0;whiteSpace=wrap;html=1;" parent="1" vertex="1">
          <mxGeometry x="290" y="170" width="337" height="70" as="geometry" />
        </mxCell>
        <mxCell id="NA2zdX5ggJzwxjYgc-BW-19" value="&lt;font style=&quot;font-size: 6px;&quot;&gt;No. &lt;span style=&quot;white-space: pre;&quot;&gt;&#x9;&lt;/span&gt;Kode Pelajaran&lt;span style=&quot;white-space: pre;&quot;&gt;&#x9;&lt;/span&gt; jadwal pelajaran &lt;span style=&quot;white-space: pre;&quot;&gt;&#x9;&lt;/span&gt;kelas &lt;span style=&quot;white-space: pre;&quot;&gt;&lt;span style=&quot;white-space: pre;&quot;&gt;&#x9;&lt;/span&gt;&lt;/span&gt;guru &lt;span style=&quot;white-space: pre;&quot;&gt;&#x9;&lt;/span&gt;hari &lt;span style=&quot;white-space: pre;&quot;&gt;&#x9;&lt;/span&gt;&lt;span style=&quot;white-space: pre;&quot;&gt;&#x9;&lt;/span&gt;mulai &lt;span style=&quot;white-space: pre;&quot;&gt;&#x9;&lt;/span&gt;selesai &lt;span style=&quot;white-space: pre;&quot;&gt;&#x9;&lt;/span&gt;semester&lt;span style=&quot;white-space: pre;&quot;&gt;&#x9;&lt;/span&gt;&lt;span style=&quot;white-space: pre;&quot;&gt;&#x9;&lt;/span&gt;Action&lt;/font&gt;" style="text;html=1;strokeColor=none;fillColor=none;align=center;verticalAlign=middle;whiteSpace=wrap;rounded=0;movable=1;resizable=1;rotatable=1;deletable=1;editable=1;locked=0;connectable=1;" parent="1" vertex="1">
          <mxGeometry x="281" y="173" width="371" height="10" as="geometry" />
        </mxCell>
        <mxCell id="NA2zdX5ggJzwxjYgc-BW-20" value="&lt;font style=&quot;font-size: 8px;&quot;&gt;Lihat&lt;/font&gt;" style="rounded=1;whiteSpace=wrap;html=1;fillColor=#CCCCCC;" parent="1" vertex="1">
          <mxGeometry x="566.5" y="127" width="35.5" height="14" as="geometry" />
        </mxCell>
        <mxCell id="NA2zdX5ggJzwxjYgc-BW-21" value="&lt;font style=&quot;font-size: 8px;&quot;&gt;Pilih Tahun Akademik&lt;/font&gt;" style="rounded=1;whiteSpace=wrap;html=1;fillColor=#CCCCCC;" parent="1" vertex="1">
          <mxGeometry x="470" y="127" width="82" height="14" as="geometry" />
        </mxCell>
        <mxCell id="NA2zdX5ggJzwxjYgc-BW-22" value="" style="rounded=0;whiteSpace=wrap;html=1;" parent="1" vertex="1">
          <mxGeometry x="324" y="155" width="24" height="10" as="geometry" />
        </mxCell>
        <mxCell id="NA2zdX5ggJzwxjYgc-BW-23" value="&lt;span style=&quot;font-size: 8px;&quot;&gt;Show&lt;/span&gt;" style="text;html=1;strokeColor=none;fillColor=none;align=center;verticalAlign=middle;whiteSpace=wrap;rounded=0;movable=1;resizable=1;rotatable=1;deletable=1;editable=1;locked=0;connectable=1;" parent="1" vertex="1">
          <mxGeometry x="284" y="158.5" width="46" height="3" as="geometry" />
        </mxCell>
        <mxCell id="NA2zdX5ggJzwxjYgc-BW-24" value="&lt;span style=&quot;font-size: 8px;&quot;&gt;Entries&lt;/span&gt;" style="text;html=1;strokeColor=none;fillColor=none;align=center;verticalAlign=middle;whiteSpace=wrap;rounded=0;movable=1;resizable=1;rotatable=1;deletable=1;editable=1;locked=0;connectable=1;" parent="1" vertex="1">
          <mxGeometry x="348" y="158.5" width="46" height="3" as="geometry" />
        </mxCell>
        <mxCell id="NA2zdX5ggJzwxjYgc-BW-25" value="" style="rounded=0;whiteSpace=wrap;html=1;" parent="1" vertex="1">
          <mxGeometry x="583.5" y="155" width="24" height="10" as="geometry" />
        </mxCell>
        <mxCell id="NA2zdX5ggJzwxjYgc-BW-26" value="&lt;span style=&quot;font-size: 8px;&quot;&gt;Search&lt;/span&gt;" style="text;html=1;strokeColor=none;fillColor=none;align=center;verticalAlign=middle;whiteSpace=wrap;rounded=0;movable=1;resizable=1;rotatable=1;deletable=1;editable=1;locked=0;connectable=1;" parent="1" vertex="1">
          <mxGeometry x="537" y="155" width="46" height="7" as="geometry" />
        </mxCell>
      </root>
    </mxGraphModel>
  </diagram>
  <diagram id="DBu9LMu0HvNucMAnsUxZ" name="bahan dan tugas">
    <mxGraphModel dx="1034" dy="511" grid="1" gridSize="10" guides="1" tooltips="1" connect="1" arrows="1" fold="1" page="1" pageScale="1" pageWidth="850" pageHeight="1100" math="0" shadow="0">
      <root>
        <mxCell id="0" />
        <mxCell id="1" parent="0" />
        <mxCell id="ECVTJXkWuXXpxGaJElU--1" value="" style="rounded=0;whiteSpace=wrap;html=1;movable=1;resizable=1;rotatable=1;deletable=1;editable=1;locked=0;connectable=1;" parent="1" vertex="1">
          <mxGeometry x="200" y="40" width="440" height="240" as="geometry" />
        </mxCell>
        <mxCell id="ECVTJXkWuXXpxGaJElU--2" value="&lt;font style=&quot;font-size: 6px;&quot;&gt;logo&lt;/font&gt;" style="whiteSpace=wrap;html=1;aspect=fixed;" parent="1" vertex="1">
          <mxGeometry x="205" y="60" width="20" height="20" as="geometry" />
        </mxCell>
        <mxCell id="ECVTJXkWuXXpxGaJElU--3" value="" style="endArrow=none;html=1;rounded=0;" parent="1" edge="1">
          <mxGeometry width="50" height="50" relative="1" as="geometry">
            <mxPoint x="280" y="280" as="sourcePoint" />
            <mxPoint x="280" y="40" as="targetPoint" />
          </mxGeometry>
        </mxCell>
        <mxCell id="ECVTJXkWuXXpxGaJElU--4" value="" style="line;strokeWidth=2;html=1;" parent="1" vertex="1">
          <mxGeometry x="286" y="42" width="8" height="5" as="geometry" />
        </mxCell>
        <mxCell id="ECVTJXkWuXXpxGaJElU--5" value="" style="line;strokeWidth=2;html=1;" parent="1" vertex="1">
          <mxGeometry x="286" y="48" width="8" height="5" as="geometry" />
        </mxCell>
        <mxCell id="ECVTJXkWuXXpxGaJElU--6" value="" style="line;strokeWidth=2;html=1;" parent="1" vertex="1">
          <mxGeometry x="286" y="45" width="8" height="5" as="geometry" />
        </mxCell>
        <mxCell id="ECVTJXkWuXXpxGaJElU--7" value="&lt;font style=&quot;font-size: 8px;&quot;&gt;&lt;b&gt;Dashboard&lt;/b&gt;&lt;/font&gt;" style="text;html=1;strokeColor=none;fillColor=none;align=center;verticalAlign=middle;whiteSpace=wrap;rounded=0;movable=1;resizable=1;rotatable=1;deletable=1;editable=1;locked=0;connectable=1;" parent="1" vertex="1">
          <mxGeometry x="293" y="54" width="38" height="10" as="geometry" />
        </mxCell>
        <mxCell id="ECVTJXkWuXXpxGaJElU--8" value="&lt;font style=&quot;font-size: 6px;&quot;&gt;guru&lt;/font&gt;" style="text;html=1;strokeColor=none;fillColor=none;align=center;verticalAlign=middle;whiteSpace=wrap;rounded=0;" parent="1" vertex="1">
          <mxGeometry x="585" y="33" width="60" height="30" as="geometry" />
        </mxCell>
        <mxCell id="ECVTJXkWuXXpxGaJElU--9" value="&lt;font style=&quot;font-size: 8px;&quot;&gt;&lt;b&gt;SMKN1 Rawajitu&lt;/b&gt;&lt;/font&gt;" style="text;html=1;strokeColor=none;fillColor=none;align=center;verticalAlign=middle;whiteSpace=wrap;rounded=0;movable=1;resizable=1;rotatable=1;deletable=1;editable=1;locked=0;connectable=1;" parent="1" vertex="1">
          <mxGeometry x="205" y="45" width="70" height="10" as="geometry" />
        </mxCell>
        <mxCell id="ECVTJXkWuXXpxGaJElU--11" value="&lt;font style=&quot;font-size: 6px;&quot;&gt;logo&lt;/font&gt;" style="whiteSpace=wrap;html=1;aspect=fixed;" parent="1" vertex="1">
          <mxGeometry x="584.5" y="43" width="20" height="20" as="geometry" />
        </mxCell>
        <mxCell id="ECVTJXkWuXXpxGaJElU--12" value="&lt;span style=&quot;font-size: 8px;&quot;&gt;Materi dan Tugas 2024&lt;/span&gt;" style="text;html=1;strokeColor=none;fillColor=none;align=center;verticalAlign=middle;whiteSpace=wrap;rounded=0;movable=1;resizable=1;rotatable=1;deletable=1;editable=1;locked=0;connectable=1;" parent="1" vertex="1">
          <mxGeometry x="267" y="76" width="135" height="10" as="geometry" />
        </mxCell>
        <mxCell id="ECVTJXkWuXXpxGaJElU--13" value="" style="rounded=0;whiteSpace=wrap;html=1;" parent="1" vertex="1">
          <mxGeometry x="293" y="113" width="337" height="70" as="geometry" />
        </mxCell>
        <mxCell id="ECVTJXkWuXXpxGaJElU--14" value="&lt;span style=&quot;font-size: 8px;&quot;&gt;No.&lt;span style=&quot;white-space: pre;&quot;&gt;&#x9;&lt;/span&gt; Jadwal Pelajaran &lt;span style=&quot;white-space: pre;&quot;&gt;&#x9;&lt;/span&gt;Kelas&amp;nbsp;Guru &lt;span style=&quot;white-space: pre;&quot;&gt;&#x9;&lt;/span&gt;Hari&lt;span style=&quot;white-space: pre;&quot;&gt;&#x9;&lt;/span&gt; Mulai &lt;span style=&quot;white-space: pre;&quot;&gt;&#x9;&lt;/span&gt;Selesai &lt;span style=&quot;white-space: pre;&quot;&gt;&#x9;&lt;/span&gt;Semester&amp;nbsp; Total&amp;nbsp; Action&lt;/span&gt;" style="text;html=1;strokeColor=none;fillColor=none;align=center;verticalAlign=middle;whiteSpace=wrap;rounded=0;movable=1;resizable=1;rotatable=1;deletable=1;editable=1;locked=0;connectable=1;" parent="1" vertex="1">
          <mxGeometry x="294" y="117" width="336" height="10" as="geometry" />
        </mxCell>
        <mxCell id="ECVTJXkWuXXpxGaJElU--15" value="&lt;font style=&quot;font-size: 8px;&quot;&gt;Lihat&lt;/font&gt;" style="rounded=1;whiteSpace=wrap;html=1;fillColor=#CCCCCC;" parent="1" vertex="1">
          <mxGeometry x="583.5" y="95" width="35.5" height="14" as="geometry" />
        </mxCell>
        <mxCell id="ECVTJXkWuXXpxGaJElU--16" value="&lt;font style=&quot;font-size: 8px;&quot;&gt;Pilih Tahun Akademik&lt;/font&gt;" style="rounded=1;whiteSpace=wrap;html=1;fillColor=#CCCCCC;" parent="1" vertex="1">
          <mxGeometry x="493" y="95" width="82" height="14" as="geometry" />
        </mxCell>
        <mxCell id="4QmJsRLBTl-b53GDAz8s-1" value="&lt;span style=&quot;font-size: 6px;&quot;&gt;Siswa Kelas..&lt;br&gt;Online&lt;br&gt;&lt;/span&gt;" style="text;html=1;strokeColor=none;fillColor=none;align=left;verticalAlign=middle;whiteSpace=wrap;rounded=0;movable=1;resizable=1;rotatable=1;deletable=1;editable=1;locked=0;connectable=1;" parent="1" vertex="1">
          <mxGeometry x="226.5" y="55" width="43.5" height="25" as="geometry" />
        </mxCell>
        <mxCell id="aVydl-3HJbYEjLNyZXLs-1" value="&lt;font style=&quot;font-size: 6px;&quot;&gt;&lt;b&gt;MENU SISWA&lt;/b&gt;&lt;/font&gt;" style="text;html=1;strokeColor=none;fillColor=none;align=center;verticalAlign=middle;whiteSpace=wrap;rounded=0;" parent="1" vertex="1">
          <mxGeometry x="187" y="85" width="77" height="10" as="geometry" />
        </mxCell>
        <mxCell id="bBO6eX83JXhZWdtHCZ3--1" value="&lt;font style=&quot;font-size: 6px;&quot;&gt;Dashboard&lt;br&gt;Materi dan Tugas&lt;br&gt;Forum Diskusi&lt;br&gt;Laporan Nilai Siswa&lt;br&gt;&lt;/font&gt;" style="text;html=1;strokeColor=none;fillColor=none;align=left;verticalAlign=middle;whiteSpace=wrap;rounded=0;" parent="1" vertex="1">
          <mxGeometry x="205" y="110" width="154" height="30" as="geometry" />
        </mxCell>
      </root>
    </mxGraphModel>
  </diagram>
  <diagram id="KCm2jIsfwIohsvD2iluh" name="forum diskusi">
    <mxGraphModel dx="1034" dy="511" grid="1" gridSize="10" guides="1" tooltips="1" connect="1" arrows="1" fold="1" page="1" pageScale="1" pageWidth="850" pageHeight="1100" math="0" shadow="0">
      <root>
        <mxCell id="0" />
        <mxCell id="1" parent="0" />
        <mxCell id="Rd8B4pQblKDshUB07FSE-1" value="" style="rounded=0;whiteSpace=wrap;html=1;movable=1;resizable=1;rotatable=1;deletable=1;editable=1;locked=0;connectable=1;" parent="1" vertex="1">
          <mxGeometry x="200" y="40" width="440" height="240" as="geometry" />
        </mxCell>
        <mxCell id="Rd8B4pQblKDshUB07FSE-2" value="&lt;font style=&quot;font-size: 6px;&quot;&gt;logo&lt;/font&gt;" style="whiteSpace=wrap;html=1;aspect=fixed;" parent="1" vertex="1">
          <mxGeometry x="205" y="60" width="20" height="20" as="geometry" />
        </mxCell>
        <mxCell id="Rd8B4pQblKDshUB07FSE-3" value="" style="endArrow=none;html=1;rounded=0;" parent="1" edge="1">
          <mxGeometry width="50" height="50" relative="1" as="geometry">
            <mxPoint x="280" y="280" as="sourcePoint" />
            <mxPoint x="280" y="40" as="targetPoint" />
          </mxGeometry>
        </mxCell>
        <mxCell id="Rd8B4pQblKDshUB07FSE-4" value="" style="line;strokeWidth=2;html=1;" parent="1" vertex="1">
          <mxGeometry x="286" y="42" width="8" height="5" as="geometry" />
        </mxCell>
        <mxCell id="Rd8B4pQblKDshUB07FSE-5" value="" style="line;strokeWidth=2;html=1;" parent="1" vertex="1">
          <mxGeometry x="286" y="48" width="8" height="5" as="geometry" />
        </mxCell>
        <mxCell id="Rd8B4pQblKDshUB07FSE-6" value="" style="line;strokeWidth=2;html=1;" parent="1" vertex="1">
          <mxGeometry x="286" y="45" width="8" height="5" as="geometry" />
        </mxCell>
        <mxCell id="Rd8B4pQblKDshUB07FSE-7" value="&lt;font style=&quot;font-size: 8px;&quot;&gt;&lt;b&gt;Dashboard&lt;/b&gt;&lt;/font&gt;" style="text;html=1;strokeColor=none;fillColor=none;align=center;verticalAlign=middle;whiteSpace=wrap;rounded=0;movable=1;resizable=1;rotatable=1;deletable=1;editable=1;locked=0;connectable=1;" parent="1" vertex="1">
          <mxGeometry x="293" y="54" width="38" height="10" as="geometry" />
        </mxCell>
        <mxCell id="Rd8B4pQblKDshUB07FSE-8" value="&lt;font style=&quot;font-size: 6px;&quot;&gt;Siswa&lt;/font&gt;" style="text;html=1;strokeColor=none;fillColor=none;align=center;verticalAlign=middle;whiteSpace=wrap;rounded=0;" parent="1" vertex="1">
          <mxGeometry x="585" y="33" width="60" height="30" as="geometry" />
        </mxCell>
        <mxCell id="Rd8B4pQblKDshUB07FSE-9" value="&lt;font style=&quot;font-size: 8px;&quot;&gt;&lt;b&gt;SMKN1 Rawajitu&lt;/b&gt;&lt;/font&gt;" style="text;html=1;strokeColor=none;fillColor=none;align=center;verticalAlign=middle;whiteSpace=wrap;rounded=0;movable=1;resizable=1;rotatable=1;deletable=1;editable=1;locked=0;connectable=1;" parent="1" vertex="1">
          <mxGeometry x="205" y="45" width="70" height="10" as="geometry" />
        </mxCell>
        <mxCell id="Rd8B4pQblKDshUB07FSE-10" value="&lt;font style=&quot;font-size: 6px;&quot;&gt;logo&lt;/font&gt;" style="whiteSpace=wrap;html=1;aspect=fixed;" parent="1" vertex="1">
          <mxGeometry x="584.5" y="43" width="20" height="20" as="geometry" />
        </mxCell>
        <mxCell id="Rd8B4pQblKDshUB07FSE-11" value="&lt;span style=&quot;font-size: 8px;&quot;&gt;Forum Diskusi 2024&lt;/span&gt;" style="text;html=1;strokeColor=none;fillColor=none;align=center;verticalAlign=middle;whiteSpace=wrap;rounded=0;movable=1;resizable=1;rotatable=1;deletable=1;editable=1;locked=0;connectable=1;" parent="1" vertex="1">
          <mxGeometry x="285" y="76" width="95" height="10" as="geometry" />
        </mxCell>
        <mxCell id="Rd8B4pQblKDshUB07FSE-12" value="" style="rounded=0;whiteSpace=wrap;html=1;" parent="1" vertex="1">
          <mxGeometry x="293" y="113" width="337" height="70" as="geometry" />
        </mxCell>
        <mxCell id="Rd8B4pQblKDshUB07FSE-13" value="&lt;span style=&quot;font-size: 8px;&quot;&gt;No.&lt;span style=&quot;white-space: pre;&quot;&gt;&#x9;&lt;/span&gt; Jadwal Pelajaran &lt;span style=&quot;white-space: pre;&quot;&gt;&#x9;&lt;/span&gt;Kelas&amp;nbsp;Guru &lt;span style=&quot;white-space: pre;&quot;&gt;&#x9;&lt;/span&gt;Hari&lt;span style=&quot;white-space: pre;&quot;&gt;&#x9;&lt;/span&gt; Mulai &lt;span style=&quot;white-space: pre;&quot;&gt;&#x9;&lt;/span&gt;Selesai &lt;span style=&quot;white-space: pre;&quot;&gt;&#x9;&lt;/span&gt;Semester&amp;nbsp; Total&amp;nbsp; Action&lt;/span&gt;" style="text;html=1;strokeColor=none;fillColor=none;align=center;verticalAlign=middle;whiteSpace=wrap;rounded=0;movable=1;resizable=1;rotatable=1;deletable=1;editable=1;locked=0;connectable=1;" parent="1" vertex="1">
          <mxGeometry x="294" y="117" width="336" height="10" as="geometry" />
        </mxCell>
        <mxCell id="Rd8B4pQblKDshUB07FSE-14" value="&lt;font style=&quot;font-size: 8px;&quot;&gt;Lihat&lt;/font&gt;" style="rounded=1;whiteSpace=wrap;html=1;fillColor=#CCCCCC;" parent="1" vertex="1">
          <mxGeometry x="583.5" y="95" width="35.5" height="14" as="geometry" />
        </mxCell>
        <mxCell id="Rd8B4pQblKDshUB07FSE-15" value="&lt;font style=&quot;font-size: 8px;&quot;&gt;Pilih Tahun Akademik&lt;/font&gt;" style="rounded=1;whiteSpace=wrap;html=1;fillColor=#CCCCCC;" parent="1" vertex="1">
          <mxGeometry x="493" y="95" width="82" height="14" as="geometry" />
        </mxCell>
        <mxCell id="Rd8B4pQblKDshUB07FSE-17" value="&lt;span style=&quot;font-size: 6px;&quot;&gt;Siswa Kelas..&lt;br&gt;Online&lt;br&gt;&lt;/span&gt;" style="text;html=1;strokeColor=none;fillColor=none;align=left;verticalAlign=middle;whiteSpace=wrap;rounded=0;movable=1;resizable=1;rotatable=1;deletable=1;editable=1;locked=0;connectable=1;" parent="1" vertex="1">
          <mxGeometry x="226.5" y="55" width="43.5" height="25" as="geometry" />
        </mxCell>
        <mxCell id="Rd8B4pQblKDshUB07FSE-18" value="&lt;font style=&quot;font-size: 6px;&quot;&gt;&lt;b&gt;MENU SISWA&lt;/b&gt;&lt;/font&gt;" style="text;html=1;strokeColor=none;fillColor=none;align=center;verticalAlign=middle;whiteSpace=wrap;rounded=0;" parent="1" vertex="1">
          <mxGeometry x="187" y="85" width="77" height="10" as="geometry" />
        </mxCell>
        <mxCell id="KpQ3hcwoiezgnYhmQG2M-1" value="&lt;font style=&quot;font-size: 6px;&quot;&gt;Dashboard&lt;br&gt;Materi dan Tugas&lt;br&gt;Forum Diskusi&lt;br&gt;Laporan Nilai Siswa&lt;br&gt;&lt;/font&gt;" style="text;html=1;strokeColor=none;fillColor=none;align=left;verticalAlign=middle;whiteSpace=wrap;rounded=0;" parent="1" vertex="1">
          <mxGeometry x="205" y="110" width="154" height="30" as="geometry" />
        </mxCell>
      </root>
    </mxGraphModel>
  </diagram>
  <diagram id="sQf7VHW9UaLZJ3JzPpzU" name="laporan niai siswa-data nilai uts">
    <mxGraphModel dx="1034" dy="511" grid="1" gridSize="10" guides="1" tooltips="1" connect="1" arrows="1" fold="1" page="1" pageScale="1" pageWidth="850" pageHeight="1100" math="0" shadow="0">
      <root>
        <mxCell id="0" />
        <mxCell id="1" parent="0" />
        <mxCell id="SZ4BFk2wkb6b72fmIdz6-1" value="" style="rounded=0;whiteSpace=wrap;html=1;movable=1;resizable=1;rotatable=1;deletable=1;editable=1;locked=0;connectable=1;" parent="1" vertex="1">
          <mxGeometry x="200" y="40" width="440" height="240" as="geometry" />
        </mxCell>
        <mxCell id="SZ4BFk2wkb6b72fmIdz6-2" value="&lt;font style=&quot;font-size: 6px;&quot;&gt;logo&lt;/font&gt;" style="whiteSpace=wrap;html=1;aspect=fixed;" parent="1" vertex="1">
          <mxGeometry x="205" y="60" width="20" height="20" as="geometry" />
        </mxCell>
        <mxCell id="SZ4BFk2wkb6b72fmIdz6-3" value="" style="endArrow=none;html=1;rounded=0;" parent="1" edge="1">
          <mxGeometry width="50" height="50" relative="1" as="geometry">
            <mxPoint x="280" y="280" as="sourcePoint" />
            <mxPoint x="280" y="40" as="targetPoint" />
          </mxGeometry>
        </mxCell>
        <mxCell id="SZ4BFk2wkb6b72fmIdz6-4" value="" style="line;strokeWidth=2;html=1;" parent="1" vertex="1">
          <mxGeometry x="286" y="42" width="8" height="5" as="geometry" />
        </mxCell>
        <mxCell id="SZ4BFk2wkb6b72fmIdz6-5" value="" style="line;strokeWidth=2;html=1;" parent="1" vertex="1">
          <mxGeometry x="286" y="48" width="8" height="5" as="geometry" />
        </mxCell>
        <mxCell id="SZ4BFk2wkb6b72fmIdz6-6" value="" style="line;strokeWidth=2;html=1;" parent="1" vertex="1">
          <mxGeometry x="286" y="45" width="8" height="5" as="geometry" />
        </mxCell>
        <mxCell id="SZ4BFk2wkb6b72fmIdz6-7" value="&lt;font style=&quot;font-size: 8px;&quot;&gt;&lt;b&gt;Dashboard&lt;/b&gt;&lt;/font&gt;" style="text;html=1;strokeColor=none;fillColor=none;align=center;verticalAlign=middle;whiteSpace=wrap;rounded=0;movable=1;resizable=1;rotatable=1;deletable=1;editable=1;locked=0;connectable=1;" parent="1" vertex="1">
          <mxGeometry x="293" y="54" width="38" height="10" as="geometry" />
        </mxCell>
        <mxCell id="SZ4BFk2wkb6b72fmIdz6-8" value="&lt;font style=&quot;font-size: 6px;&quot;&gt;Siswa&lt;/font&gt;" style="text;html=1;strokeColor=none;fillColor=none;align=center;verticalAlign=middle;whiteSpace=wrap;rounded=0;" parent="1" vertex="1">
          <mxGeometry x="585" y="33" width="60" height="30" as="geometry" />
        </mxCell>
        <mxCell id="SZ4BFk2wkb6b72fmIdz6-9" value="&lt;font style=&quot;font-size: 8px;&quot;&gt;&lt;b&gt;SMKN1 Rawajitu&lt;/b&gt;&lt;/font&gt;" style="text;html=1;strokeColor=none;fillColor=none;align=center;verticalAlign=middle;whiteSpace=wrap;rounded=0;movable=1;resizable=1;rotatable=1;deletable=1;editable=1;locked=0;connectable=1;" parent="1" vertex="1">
          <mxGeometry x="205" y="45" width="70" height="10" as="geometry" />
        </mxCell>
        <mxCell id="SZ4BFk2wkb6b72fmIdz6-10" value="&lt;font style=&quot;font-size: 6px;&quot;&gt;logo&lt;/font&gt;" style="whiteSpace=wrap;html=1;aspect=fixed;" parent="1" vertex="1">
          <mxGeometry x="584.5" y="43" width="20" height="20" as="geometry" />
        </mxCell>
        <mxCell id="SZ4BFk2wkb6b72fmIdz6-11" value="&lt;span style=&quot;font-size: 8px;&quot;&gt;Laporan Nilai UTS: Siswa&lt;/span&gt;" style="text;html=1;strokeColor=none;fillColor=none;align=center;verticalAlign=middle;whiteSpace=wrap;rounded=0;movable=1;resizable=1;rotatable=1;deletable=1;editable=1;locked=0;connectable=1;" parent="1" vertex="1">
          <mxGeometry x="290" y="76" width="100" height="10" as="geometry" />
        </mxCell>
        <mxCell id="SZ4BFk2wkb6b72fmIdz6-12" value="" style="rounded=0;whiteSpace=wrap;html=1;" parent="1" vertex="1">
          <mxGeometry x="293" y="113" width="337" height="70" as="geometry" />
        </mxCell>
        <mxCell id="SZ4BFk2wkb6b72fmIdz6-13" value="&lt;span style=&quot;font-size: 8px;&quot;&gt;No. &lt;span style=&quot;white-space: pre;&quot;&gt;&#x9;&lt;span style=&quot;white-space: pre;&quot;&gt;&#x9;&lt;/span&gt;&lt;/span&gt;Mata Pelajaran &lt;span style=&quot;white-space: pre;&quot;&gt;&#x9;&lt;/span&gt;KKM &lt;span style=&quot;white-space: pre;&quot;&gt;&#x9;&lt;span style=&quot;white-space: pre;&quot;&gt;&#x9;&lt;/span&gt;&lt;/span&gt;Pengetahuan &lt;span style=&quot;white-space: pre;&quot;&gt;&#x9;&lt;/span&gt;&lt;span style=&quot;white-space: pre;&quot;&gt;&#x9;&lt;/span&gt;Keterampilan&lt;/span&gt;" style="text;html=1;strokeColor=none;fillColor=none;align=center;verticalAlign=middle;whiteSpace=wrap;rounded=0;movable=1;resizable=1;rotatable=1;deletable=1;editable=1;locked=0;connectable=1;" parent="1" vertex="1">
          <mxGeometry x="294" y="117" width="336" height="10" as="geometry" />
        </mxCell>
        <mxCell id="SZ4BFk2wkb6b72fmIdz6-14" value="&lt;font style=&quot;font-size: 8px;&quot;&gt;Lihat&lt;/font&gt;" style="rounded=1;whiteSpace=wrap;html=1;fillColor=#CCCCCC;" parent="1" vertex="1">
          <mxGeometry x="583.5" y="95" width="35.5" height="14" as="geometry" />
        </mxCell>
        <mxCell id="SZ4BFk2wkb6b72fmIdz6-15" value="&lt;font style=&quot;font-size: 8px;&quot;&gt;Pilih Tahun Akademik&lt;/font&gt;" style="rounded=1;whiteSpace=wrap;html=1;fillColor=#CCCCCC;" parent="1" vertex="1">
          <mxGeometry x="493" y="95" width="82" height="14" as="geometry" />
        </mxCell>
        <mxCell id="SZ4BFk2wkb6b72fmIdz6-17" value="&lt;span style=&quot;font-size: 6px;&quot;&gt;Siswa Kelas..&lt;br&gt;Online&lt;br&gt;&lt;/span&gt;" style="text;html=1;strokeColor=none;fillColor=none;align=left;verticalAlign=middle;whiteSpace=wrap;rounded=0;movable=1;resizable=1;rotatable=1;deletable=1;editable=1;locked=0;connectable=1;" parent="1" vertex="1">
          <mxGeometry x="226.5" y="55" width="43.5" height="25" as="geometry" />
        </mxCell>
        <mxCell id="SZ4BFk2wkb6b72fmIdz6-18" value="&lt;font style=&quot;font-size: 6px;&quot;&gt;&lt;b&gt;MENU SISWA&lt;/b&gt;&lt;/font&gt;" style="text;html=1;strokeColor=none;fillColor=none;align=center;verticalAlign=middle;whiteSpace=wrap;rounded=0;" parent="1" vertex="1">
          <mxGeometry x="187" y="85" width="77" height="10" as="geometry" />
        </mxCell>
        <mxCell id="SZ4BFk2wkb6b72fmIdz6-19" value="&lt;span style=&quot;font-size: 8px;&quot;&gt;Capaian Kompetensi&lt;/span&gt;" style="text;html=1;strokeColor=none;fillColor=none;align=center;verticalAlign=middle;whiteSpace=wrap;rounded=0;movable=1;resizable=1;rotatable=1;deletable=1;editable=1;locked=0;connectable=1;" parent="1" vertex="1">
          <mxGeometry x="284" y="99" width="100" height="10" as="geometry" />
        </mxCell>
        <mxCell id="SZ4BFk2wkb6b72fmIdz6-20" value="&lt;span style=&quot;font-size: 8px;&quot;&gt;Nilai Predikat &lt;span style=&quot;white-space: pre;&quot;&gt;&#x9;&lt;/span&gt;&lt;span style=&quot;white-space: pre;&quot;&gt;&#x9;&lt;/span&gt;Nilai Predikat&lt;/span&gt;" style="text;html=1;strokeColor=none;fillColor=none;align=center;verticalAlign=middle;whiteSpace=wrap;rounded=0;movable=1;resizable=1;rotatable=1;deletable=1;editable=1;locked=0;connectable=1;" parent="1" vertex="1">
          <mxGeometry x="370" y="127" width="336" height="10" as="geometry" />
        </mxCell>
        <mxCell id="SZ4BFk2wkb6b72fmIdz6-21" value="&lt;div style=&quot;text-align: left;&quot;&gt;&lt;span style=&quot;font-size: 8px; background-color: initial;&quot;&gt;Kelompok A (umum)&lt;/span&gt;&lt;/div&gt;&lt;span style=&quot;font-size: 8px;&quot;&gt;&lt;div style=&quot;text-align: left;&quot;&gt;&lt;span style=&quot;background-color: initial;&quot;&gt;Kelompok B ( umum)&lt;/span&gt;&lt;/div&gt;&lt;div style=&quot;text-align: left;&quot;&gt;&lt;span style=&quot;background-color: initial;&quot;&gt;Kelompok C (Peminatan)&lt;/span&gt;&lt;/div&gt;&lt;/span&gt;" style="text;html=1;strokeColor=none;fillColor=none;align=center;verticalAlign=middle;whiteSpace=wrap;rounded=0;movable=1;resizable=1;rotatable=1;deletable=1;editable=1;locked=0;connectable=1;" parent="1" vertex="1">
          <mxGeometry x="290" y="249" width="100" height="10" as="geometry" />
        </mxCell>
        <mxCell id="SXUDPWuCfKm_pCW3f5Ob-1" value="&lt;font style=&quot;font-size: 6px;&quot;&gt;Dashboard&lt;br&gt;Materi dan Tugas&lt;br&gt;Forum Diskusi&lt;br&gt;Laporan Nilai Siswa&lt;br&gt;&lt;/font&gt;" style="text;html=1;strokeColor=none;fillColor=none;align=left;verticalAlign=middle;whiteSpace=wrap;rounded=0;" parent="1" vertex="1">
          <mxGeometry x="205" y="110" width="154" height="30" as="geometry" />
        </mxCell>
      </root>
    </mxGraphModel>
  </diagram>
  <diagram id="AxVJxLMwg0tSilAvghIU" name="laporan nilai siswa-nilai rapot">
    <mxGraphModel dx="1034" dy="511" grid="1" gridSize="10" guides="1" tooltips="1" connect="1" arrows="1" fold="1" page="1" pageScale="1" pageWidth="850" pageHeight="1100" math="0" shadow="0">
      <root>
        <mxCell id="0" />
        <mxCell id="1" parent="0" />
        <mxCell id="lJFwnFeq0YS1YnzlPHZQ-1" value="" style="rounded=0;whiteSpace=wrap;html=1;movable=1;resizable=1;rotatable=1;deletable=1;editable=1;locked=0;connectable=1;" parent="1" vertex="1">
          <mxGeometry x="200" y="40" width="440" height="240" as="geometry" />
        </mxCell>
        <mxCell id="lJFwnFeq0YS1YnzlPHZQ-2" value="&lt;font style=&quot;font-size: 6px;&quot;&gt;logo&lt;/font&gt;" style="whiteSpace=wrap;html=1;aspect=fixed;" parent="1" vertex="1">
          <mxGeometry x="205" y="60" width="20" height="20" as="geometry" />
        </mxCell>
        <mxCell id="lJFwnFeq0YS1YnzlPHZQ-3" value="" style="endArrow=none;html=1;rounded=0;" parent="1" edge="1">
          <mxGeometry width="50" height="50" relative="1" as="geometry">
            <mxPoint x="280" y="280" as="sourcePoint" />
            <mxPoint x="280" y="40" as="targetPoint" />
          </mxGeometry>
        </mxCell>
        <mxCell id="lJFwnFeq0YS1YnzlPHZQ-4" value="" style="line;strokeWidth=2;html=1;" parent="1" vertex="1">
          <mxGeometry x="286" y="42" width="8" height="5" as="geometry" />
        </mxCell>
        <mxCell id="lJFwnFeq0YS1YnzlPHZQ-5" value="" style="line;strokeWidth=2;html=1;" parent="1" vertex="1">
          <mxGeometry x="286" y="48" width="8" height="5" as="geometry" />
        </mxCell>
        <mxCell id="lJFwnFeq0YS1YnzlPHZQ-6" value="" style="line;strokeWidth=2;html=1;" parent="1" vertex="1">
          <mxGeometry x="286" y="45" width="8" height="5" as="geometry" />
        </mxCell>
        <mxCell id="lJFwnFeq0YS1YnzlPHZQ-7" value="&lt;font style=&quot;font-size: 8px;&quot;&gt;&lt;b&gt;Dashboard&lt;/b&gt;&lt;/font&gt;" style="text;html=1;strokeColor=none;fillColor=none;align=center;verticalAlign=middle;whiteSpace=wrap;rounded=0;movable=1;resizable=1;rotatable=1;deletable=1;editable=1;locked=0;connectable=1;" parent="1" vertex="1">
          <mxGeometry x="293" y="54" width="38" height="10" as="geometry" />
        </mxCell>
        <mxCell id="lJFwnFeq0YS1YnzlPHZQ-8" value="&lt;font style=&quot;font-size: 6px;&quot;&gt;Siswa&lt;/font&gt;" style="text;html=1;strokeColor=none;fillColor=none;align=center;verticalAlign=middle;whiteSpace=wrap;rounded=0;" parent="1" vertex="1">
          <mxGeometry x="585" y="33" width="60" height="30" as="geometry" />
        </mxCell>
        <mxCell id="lJFwnFeq0YS1YnzlPHZQ-9" value="&lt;font style=&quot;font-size: 8px;&quot;&gt;&lt;b&gt;SMKN1 Rawajitu&lt;/b&gt;&lt;/font&gt;" style="text;html=1;strokeColor=none;fillColor=none;align=center;verticalAlign=middle;whiteSpace=wrap;rounded=0;movable=1;resizable=1;rotatable=1;deletable=1;editable=1;locked=0;connectable=1;" parent="1" vertex="1">
          <mxGeometry x="205" y="45" width="70" height="10" as="geometry" />
        </mxCell>
        <mxCell id="lJFwnFeq0YS1YnzlPHZQ-10" value="&lt;font style=&quot;font-size: 6px;&quot;&gt;logo&lt;/font&gt;" style="whiteSpace=wrap;html=1;aspect=fixed;" parent="1" vertex="1">
          <mxGeometry x="584.5" y="43" width="20" height="20" as="geometry" />
        </mxCell>
        <mxCell id="lJFwnFeq0YS1YnzlPHZQ-11" value="&lt;span style=&quot;font-size: 8px;&quot;&gt;Laporan Nilai Akhir: Siswa&lt;/span&gt;" style="text;html=1;strokeColor=none;fillColor=none;align=center;verticalAlign=middle;whiteSpace=wrap;rounded=0;movable=1;resizable=1;rotatable=1;deletable=1;editable=1;locked=0;connectable=1;" parent="1" vertex="1">
          <mxGeometry x="290" y="76" width="100" height="10" as="geometry" />
        </mxCell>
        <mxCell id="lJFwnFeq0YS1YnzlPHZQ-12" value="" style="rounded=0;whiteSpace=wrap;html=1;" parent="1" vertex="1">
          <mxGeometry x="293" y="113" width="337" height="70" as="geometry" />
        </mxCell>
        <mxCell id="lJFwnFeq0YS1YnzlPHZQ-13" value="&lt;span style=&quot;font-size: 8px;&quot;&gt;No. &lt;span style=&quot;white-space: pre;&quot;&gt;&#x9;&lt;span style=&quot;white-space: pre;&quot;&gt;&#x9;&lt;/span&gt;&lt;/span&gt;Mata Pelajaran &lt;span style=&quot;white-space: pre;&quot;&gt;&#x9;&lt;/span&gt;KKM &lt;span style=&quot;white-space: pre;&quot;&gt;&#x9;&lt;span style=&quot;white-space: pre;&quot;&gt;&#x9;&lt;/span&gt;&lt;/span&gt;Pengetahuan &lt;span style=&quot;white-space: pre;&quot;&gt;&#x9;&lt;/span&gt;&lt;span style=&quot;white-space: pre;&quot;&gt;&#x9;&lt;/span&gt;Keterampilan&lt;/span&gt;" style="text;html=1;strokeColor=none;fillColor=none;align=center;verticalAlign=middle;whiteSpace=wrap;rounded=0;movable=1;resizable=1;rotatable=1;deletable=1;editable=1;locked=0;connectable=1;" parent="1" vertex="1">
          <mxGeometry x="294" y="117" width="336" height="10" as="geometry" />
        </mxCell>
        <mxCell id="lJFwnFeq0YS1YnzlPHZQ-14" value="&lt;font style=&quot;font-size: 8px;&quot;&gt;Lihat&lt;/font&gt;" style="rounded=1;whiteSpace=wrap;html=1;fillColor=#CCCCCC;" parent="1" vertex="1">
          <mxGeometry x="583.5" y="95" width="35.5" height="14" as="geometry" />
        </mxCell>
        <mxCell id="lJFwnFeq0YS1YnzlPHZQ-15" value="&lt;font style=&quot;font-size: 8px;&quot;&gt;Pilih Tahun Akademik&lt;/font&gt;" style="rounded=1;whiteSpace=wrap;html=1;fillColor=#CCCCCC;" parent="1" vertex="1">
          <mxGeometry x="493" y="95" width="82" height="14" as="geometry" />
        </mxCell>
        <mxCell id="lJFwnFeq0YS1YnzlPHZQ-17" value="&lt;span style=&quot;font-size: 6px;&quot;&gt;Siswa Kelas..&lt;br&gt;Online&lt;br&gt;&lt;/span&gt;" style="text;html=1;strokeColor=none;fillColor=none;align=left;verticalAlign=middle;whiteSpace=wrap;rounded=0;movable=1;resizable=1;rotatable=1;deletable=1;editable=1;locked=0;connectable=1;" parent="1" vertex="1">
          <mxGeometry x="226.5" y="55" width="43.5" height="25" as="geometry" />
        </mxCell>
        <mxCell id="lJFwnFeq0YS1YnzlPHZQ-18" value="&lt;font style=&quot;font-size: 6px;&quot;&gt;&lt;b&gt;MENU SISWA&lt;/b&gt;&lt;/font&gt;" style="text;html=1;strokeColor=none;fillColor=none;align=center;verticalAlign=middle;whiteSpace=wrap;rounded=0;" parent="1" vertex="1">
          <mxGeometry x="187" y="85" width="77" height="10" as="geometry" />
        </mxCell>
        <mxCell id="lJFwnFeq0YS1YnzlPHZQ-19" value="&lt;span style=&quot;font-size: 8px;&quot;&gt;Capaian Kompetensi&lt;/span&gt;" style="text;html=1;strokeColor=none;fillColor=none;align=center;verticalAlign=middle;whiteSpace=wrap;rounded=0;movable=1;resizable=1;rotatable=1;deletable=1;editable=1;locked=0;connectable=1;" parent="1" vertex="1">
          <mxGeometry x="284" y="99" width="100" height="10" as="geometry" />
        </mxCell>
        <mxCell id="lJFwnFeq0YS1YnzlPHZQ-20" value="&lt;span style=&quot;font-size: 8px;&quot;&gt;Nilai Predikat &lt;span style=&quot;white-space: pre;&quot;&gt;&#x9;&lt;/span&gt;&lt;span style=&quot;white-space: pre;&quot;&gt;&#x9;&lt;/span&gt;Nilai Predikat&lt;/span&gt;" style="text;html=1;strokeColor=none;fillColor=none;align=center;verticalAlign=middle;whiteSpace=wrap;rounded=0;movable=1;resizable=1;rotatable=1;deletable=1;editable=1;locked=0;connectable=1;" parent="1" vertex="1">
          <mxGeometry x="370" y="127" width="336" height="10" as="geometry" />
        </mxCell>
        <mxCell id="lJFwnFeq0YS1YnzlPHZQ-21" value="&lt;div style=&quot;text-align: left;&quot;&gt;&lt;span style=&quot;font-size: 8px; background-color: initial;&quot;&gt;Kelompok A (umum)&lt;/span&gt;&lt;/div&gt;&lt;span style=&quot;font-size: 8px;&quot;&gt;&lt;div style=&quot;text-align: left;&quot;&gt;&lt;span style=&quot;background-color: initial;&quot;&gt;Kelompok B ( umum)&lt;/span&gt;&lt;/div&gt;&lt;div style=&quot;text-align: left;&quot;&gt;&lt;span style=&quot;background-color: initial;&quot;&gt;Kelompok C (Peminatan)&lt;/span&gt;&lt;/div&gt;&lt;/span&gt;" style="text;html=1;strokeColor=none;fillColor=none;align=center;verticalAlign=middle;whiteSpace=wrap;rounded=0;movable=1;resizable=1;rotatable=1;deletable=1;editable=1;locked=0;connectable=1;" parent="1" vertex="1">
          <mxGeometry x="290" y="249" width="100" height="10" as="geometry" />
        </mxCell>
        <mxCell id="rtlKffJE-q4W4vKcGwFJ-1" value="&lt;font style=&quot;font-size: 6px;&quot;&gt;Dashboard&lt;br&gt;Materi dan Tugas&lt;br&gt;Forum Diskusi&lt;br&gt;Laporan Nilai Siswa&lt;br&gt;&lt;/font&gt;" style="text;html=1;strokeColor=none;fillColor=none;align=left;verticalAlign=middle;whiteSpace=wrap;rounded=0;" parent="1" vertex="1">
          <mxGeometry x="205" y="110" width="154" height="30" as="geometry" />
        </mxCell>
      </root>
    </mxGraphModel>
  </diagram>
  <diagram id="oLxy1StJO-tFsRmvNevA" name="laporan nilai siswa-cetak rapot">
    <mxGraphModel dx="1034" dy="511" grid="1" gridSize="10" guides="1" tooltips="1" connect="1" arrows="1" fold="1" page="1" pageScale="1" pageWidth="850" pageHeight="1100" math="0" shadow="0">
      <root>
        <mxCell id="0" />
        <mxCell id="1" parent="0" />
        <mxCell id="xQO4TrRMG2PJZRuFKRTB-1" value="" style="rounded=0;whiteSpace=wrap;html=1;movable=1;resizable=1;rotatable=1;deletable=1;editable=1;locked=0;connectable=1;" parent="1" vertex="1">
          <mxGeometry x="200" y="40" width="440" height="240" as="geometry" />
        </mxCell>
        <mxCell id="xQO4TrRMG2PJZRuFKRTB-2" value="&lt;font style=&quot;font-size: 6px;&quot;&gt;logo&lt;/font&gt;" style="whiteSpace=wrap;html=1;aspect=fixed;" parent="1" vertex="1">
          <mxGeometry x="205" y="60" width="20" height="20" as="geometry" />
        </mxCell>
        <mxCell id="xQO4TrRMG2PJZRuFKRTB-3" value="" style="endArrow=none;html=1;rounded=0;" parent="1" edge="1">
          <mxGeometry width="50" height="50" relative="1" as="geometry">
            <mxPoint x="280" y="280" as="sourcePoint" />
            <mxPoint x="280" y="40" as="targetPoint" />
          </mxGeometry>
        </mxCell>
        <mxCell id="xQO4TrRMG2PJZRuFKRTB-4" value="" style="line;strokeWidth=2;html=1;" parent="1" vertex="1">
          <mxGeometry x="286" y="42" width="8" height="5" as="geometry" />
        </mxCell>
        <mxCell id="xQO4TrRMG2PJZRuFKRTB-5" value="" style="line;strokeWidth=2;html=1;" parent="1" vertex="1">
          <mxGeometry x="286" y="48" width="8" height="5" as="geometry" />
        </mxCell>
        <mxCell id="xQO4TrRMG2PJZRuFKRTB-6" value="" style="line;strokeWidth=2;html=1;" parent="1" vertex="1">
          <mxGeometry x="286" y="45" width="8" height="5" as="geometry" />
        </mxCell>
        <mxCell id="xQO4TrRMG2PJZRuFKRTB-7" value="&lt;font style=&quot;font-size: 8px;&quot;&gt;&lt;b&gt;Dashboard&lt;/b&gt;&lt;/font&gt;" style="text;html=1;strokeColor=none;fillColor=none;align=center;verticalAlign=middle;whiteSpace=wrap;rounded=0;movable=1;resizable=1;rotatable=1;deletable=1;editable=1;locked=0;connectable=1;" parent="1" vertex="1">
          <mxGeometry x="293" y="54" width="38" height="10" as="geometry" />
        </mxCell>
        <mxCell id="xQO4TrRMG2PJZRuFKRTB-8" value="&lt;font style=&quot;font-size: 6px;&quot;&gt;Siswa&lt;/font&gt;" style="text;html=1;strokeColor=none;fillColor=none;align=center;verticalAlign=middle;whiteSpace=wrap;rounded=0;" parent="1" vertex="1">
          <mxGeometry x="585" y="33" width="60" height="30" as="geometry" />
        </mxCell>
        <mxCell id="xQO4TrRMG2PJZRuFKRTB-9" value="&lt;font style=&quot;font-size: 8px;&quot;&gt;&lt;b&gt;SMKN1 Rawajitu&lt;/b&gt;&lt;/font&gt;" style="text;html=1;strokeColor=none;fillColor=none;align=center;verticalAlign=middle;whiteSpace=wrap;rounded=0;movable=1;resizable=1;rotatable=1;deletable=1;editable=1;locked=0;connectable=1;" parent="1" vertex="1">
          <mxGeometry x="205" y="45" width="70" height="10" as="geometry" />
        </mxCell>
        <mxCell id="xQO4TrRMG2PJZRuFKRTB-10" value="&lt;font style=&quot;font-size: 6px;&quot;&gt;logo&lt;/font&gt;" style="whiteSpace=wrap;html=1;aspect=fixed;" parent="1" vertex="1">
          <mxGeometry x="584.5" y="43" width="20" height="20" as="geometry" />
        </mxCell>
        <mxCell id="xQO4TrRMG2PJZRuFKRTB-11" value="&lt;span style=&quot;font-size: 8px;&quot;&gt;Cetak Raport Semester Siswa&lt;/span&gt;" style="text;html=1;strokeColor=none;fillColor=none;align=center;verticalAlign=middle;whiteSpace=wrap;rounded=0;movable=1;resizable=1;rotatable=1;deletable=1;editable=1;locked=0;connectable=1;" parent="1" vertex="1">
          <mxGeometry x="285" y="76" width="115" height="10" as="geometry" />
        </mxCell>
        <mxCell id="xQO4TrRMG2PJZRuFKRTB-12" value="" style="rounded=0;whiteSpace=wrap;html=1;" parent="1" vertex="1">
          <mxGeometry x="293" y="113" width="337" height="70" as="geometry" />
        </mxCell>
        <mxCell id="xQO4TrRMG2PJZRuFKRTB-13" value="&lt;span style=&quot;font-size: 8px;&quot;&gt;No. &lt;span style=&quot;white-space: pre;&quot;&gt;&#x9;&lt;/span&gt;&lt;span style=&quot;white-space: pre;&quot;&gt;&#x9;&lt;/span&gt;NIPD &lt;span style=&quot;white-space: pre;&quot;&gt;&#x9;&lt;span style=&quot;white-space: pre;&quot;&gt;&#x9;&lt;/span&gt;&lt;/span&gt;NISN &lt;span style=&quot;white-space: pre;&quot;&gt;&#x9;&lt;span style=&quot;white-space: pre;&quot;&gt;&#x9;&lt;/span&gt;&lt;/span&gt;Nama Siswa&lt;span style=&quot;white-space: pre;&quot;&gt;&#x9;&lt;span style=&quot;white-space: pre;&quot;&gt;&#x9;&lt;/span&gt;&lt;/span&gt; Jenis Kelamin &lt;span style=&quot;white-space: pre;&quot;&gt;&#x9;&lt;/span&gt;Action&lt;/span&gt;" style="text;html=1;strokeColor=none;fillColor=none;align=center;verticalAlign=middle;whiteSpace=wrap;rounded=0;movable=1;resizable=1;rotatable=1;deletable=1;editable=1;locked=0;connectable=1;" parent="1" vertex="1">
          <mxGeometry x="294" y="117" width="336" height="10" as="geometry" />
        </mxCell>
        <mxCell id="xQO4TrRMG2PJZRuFKRTB-14" value="&lt;font style=&quot;font-size: 8px;&quot;&gt;Lihat&lt;/font&gt;" style="rounded=1;whiteSpace=wrap;html=1;fillColor=#CCCCCC;" parent="1" vertex="1">
          <mxGeometry x="583.5" y="95" width="35.5" height="14" as="geometry" />
        </mxCell>
        <mxCell id="xQO4TrRMG2PJZRuFKRTB-15" value="&lt;font style=&quot;font-size: 8px;&quot;&gt;Pilih Tahun Akademik&lt;/font&gt;" style="rounded=1;whiteSpace=wrap;html=1;fillColor=#CCCCCC;" parent="1" vertex="1">
          <mxGeometry x="493" y="95" width="82" height="14" as="geometry" />
        </mxCell>
        <mxCell id="xQO4TrRMG2PJZRuFKRTB-16" value="&lt;span style=&quot;font-size: 6px;&quot;&gt;Siswa Kelas..&lt;br&gt;Online&lt;br&gt;&lt;/span&gt;" style="text;html=1;strokeColor=none;fillColor=none;align=left;verticalAlign=middle;whiteSpace=wrap;rounded=0;movable=1;resizable=1;rotatable=1;deletable=1;editable=1;locked=0;connectable=1;" parent="1" vertex="1">
          <mxGeometry x="226.5" y="55" width="43.5" height="25" as="geometry" />
        </mxCell>
        <mxCell id="xQO4TrRMG2PJZRuFKRTB-17" value="&lt;font style=&quot;font-size: 6px;&quot;&gt;&lt;b&gt;MENU SISWA&lt;/b&gt;&lt;/font&gt;" style="text;html=1;strokeColor=none;fillColor=none;align=center;verticalAlign=middle;whiteSpace=wrap;rounded=0;" parent="1" vertex="1">
          <mxGeometry x="187" y="85" width="77" height="10" as="geometry" />
        </mxCell>
        <mxCell id="xQO4TrRMG2PJZRuFKRTB-18" value="&lt;font style=&quot;font-size: 6px;&quot;&gt;Dashboard&lt;br&gt;Materi dan Tugas&lt;br&gt;Forum Diskusi&lt;br&gt;Laporan Nilai Siswa&lt;br&gt;&lt;/font&gt;" style="text;html=1;strokeColor=none;fillColor=none;align=left;verticalAlign=middle;whiteSpace=wrap;rounded=0;" parent="1" vertex="1">
          <mxGeometry x="205" y="110" width="154" height="30" as="geometry" />
        </mxCell>
      </root>
    </mxGraphModel>
  </diagram>
</mxfile>
